#!OML:ASF H:\Terrain\Patient Classification 1\Walking\liu\liu.ASF
:FULLY-SPECIFIED
:DEGREES
485
root 10.880600 17.286699 31.613800 4.312640 4.298630 4.662650
lowerback -4.148795 -2.413155 -2.704210
upperback 1.242285 -2.979805 0.723685
thorax 4.005205 -1.606680 1.813775
lowerneck -11.999950 -1.284655 -4.870840
upperneck 11.629550 -1.464340 5.176650
head 5.960300 -0.415300 2.530625
rclavicle 0.000000 0.000000
rhumerus -22.644150 4.332305 -42.757198
rradius 18.817249
rwrist -9.897300
rhand -16.309099 -11.015650
rfingers 3.562510
rthumb -2.922810 -25.965300
lclavicle 0.000000 0.000000
lhumerus -2.861700 -10.872750 41.287102
lradius 16.461901
lwrist 4.337930
lhand -8.541300 -12.899350
lfingers 3.562510
lthumb 4.577800 1.991260
rfemur -20.051849 4.415840 5.046850
rtibia 14.935100
rfoot -11.128150 -3.312875
rtoes -7.868850
lfemur 5.869350 1.205950 -14.778300
ltibia 0.000000
lfoot -6.880800 2.259125
ltoes 1.290135
486
root 10.873700 17.275101 31.756500 4.394800 4.281010 4.506040
lowerback -4.166715 -2.384120 -2.569280
upperback 1.200095 -2.954325 0.712610
thorax 3.950485 -1.585360 1.732405
lowerneck -11.956250 -1.161985 -4.734270
upperneck 11.744300 -1.351710 5.169800
head 5.979750 -0.354735 2.527965
rclavicle 0.000000 -0.000000
rhumerus -22.720301 4.133785 -42.673199
rradius 18.665001
rwrist -9.823500
rhand -15.601400 -11.763100
rfingers 3.562510
rthumb -2.239505 -26.729401
lclavicle 0.000000 -0.000000
lhumerus -3.065210 -11.149400 41.399700
lradius 16.634501
lwrist 4.303730
lhand -8.495650 -12.970750
lfingers 3.562510
lthumb 4.621880 1.917930
rfemur -20.366550 4.856485 4.906595
rtibia 14.679150
rfoot -11.464750 -3.472425
rtoes -8.244150
lfemur 6.082950 1.204945 -14.649800
ltibia 0.000000
lfoot -7.075050 2.265595
ltoes 1.445220
487
root 10.868400 17.258400 31.906300 4.422510 4.232930 4.848710
lowerback -3.269610 -2.367605 -2.619975
upperback 0.433212 -2.977965 0.673545
thorax 2.624625 -1.559490 1.823320
lowerneck -11.372750 -1.188065 -4.798305
upperneck 12.218550 -1.408255 5.019800
head 6.054300 -0.422448 2.484265
rclavicle 0.000000 -0.000000
rhumerus -24.186600 4.234715 -42.779499
rradius 18.752001
rwrist -9.873400
rhand -15.536900 -11.674450
rfingers 3.562510
rthumb -2.177205 -26.642050
lclavicle 0.000000 -0.000000
lhumerus -4.690970 -11.395700 42.123100
lradius 16.825300
lwrist 3.753245
lhand -9.087500 -13.111650
lfingers 3.562510
lthumb 4.050700 1.800715
rfemur -20.566200 5.290800 4.472775
rtibia 14.391750
rfoot -11.864650 -3.556175
rtoes -8.230950
lfemur 6.367000 1.211780 -14.801900
ltibia 0.000000
lfoot -7.286800 2.310785
ltoes 0.989615
488
root 10.857000 17.235901 32.042400 4.577570 4.181750 5.229140
lowerback -2.766490 -2.368865 -2.747170
upperback -0.027947 -3.002080 0.620135
thorax 1.868305 -1.548165 1.899210
lowerneck -10.834800 -1.088215 -4.846295
upperneck 12.331850 -1.314610 5.047900
head 5.980700 -0.394239 2.517150
rclavicle -0.000000 0.000000
rhumerus -25.019251 4.268655 -42.876148
rradius 18.684250
rwrist -9.866200
rhand -15.648550 -11.274350
rfingers 3.562510
rthumb -2.285010 -26.239700
lclavicle -0.000000 0.000000
lhumerus -5.569600 -11.270000 42.477749
lradius 17.175501
lwrist 4.052230
lhand -8.373600 -13.116250
lfingers 3.562510
lthumb 4.739630 1.767140
rfemur -20.849001 5.758750 3.959390
rtibia 14.081600
rfoot -12.167650 -3.705720
rtoes -8.124200
lfemur 6.561050 1.206180 -14.964900
ltibia -0.000000
lfoot -7.405750 2.394870
ltoes 0.726365
489
root 10.841400 17.214899 32.185398 4.895430 4.128160 4.869330
lowerback -2.636290 -2.382875 -2.514755
upperback -0.317514 -3.047060 0.642690
thorax 1.477040 -1.552420 1.815325
lowerneck -10.693150 -1.038710 -4.610360
upperneck 12.566350 -1.303455 4.865505
head 6.035950 -0.394994 2.415295
rclavicle 0.000000 -0.000000
rhumerus -25.509501 4.312520 -43.007999
rradius 18.577351
rwrist -9.846000
rhand -15.657400 -11.314850
rfingers 3.562510
rthumb -2.293570 -26.280001
lclavicle 0.000000 -0.000000
lhumerus -6.182700 -11.315500 42.647350
lradius 17.371149
lwrist 4.042540
lhand -8.204100 -13.182450
lfingers 3.562510
lthumb 4.903185 1.693385
rfemur -21.224751 6.244650 3.862655
rtibia 13.809200
rfoot -12.527500 -3.963770
rtoes -7.579250
lfemur 6.668850 1.208730 -14.738700
ltibia 0.000000
lfoot -7.475900 2.542425
ltoes 0.027199
490
root 10.829100 17.197500 32.343201 5.086950 4.224930 4.102420
lowerback -2.737905 -2.405630 -2.081630
upperback -0.399500 -3.101315 0.729960
thorax 1.418155 -1.572175 1.656845
lowerneck -10.615600 -0.980875 -4.482175
upperneck 12.575150 -1.263055 4.829455
head 6.016600 -0.370672 2.384830
rclavicle -0.000000 -0.000000
rhumerus -25.709900 4.195285 -42.997601
rradius 18.524851
rwrist -9.712150
rhand -15.432600 -11.626200
rfingers 3.562510
rthumb -2.076465 -26.595850
lclavicle -0.000000 -0.000000
lhumerus -6.577450 -11.779850 42.825100
lradius 17.383101
lwrist 3.507375
lhand -9.172300 -13.276500
lfingers 3.562510
lthumb 3.968860 1.638975
rfemur -21.429600 6.552550 4.126685
rtibia 13.630450
rfoot -13.181700 -3.902110
rtoes -5.230100
lfemur 6.871750 1.162255 -14.284650
ltibia -0.000000
lfoot -7.652800 2.595915
ltoes -0.408737
491
root 10.819700 17.175400 32.490002 5.077140 4.368030 4.199750
lowerback -2.735860 -2.433180 -2.108705
upperback -0.373619 -3.135685 0.708360
thorax 1.447455 -1.590415 1.644930
lowerneck -10.885850 -1.039965 -4.352410
upperneck 12.752050 -1.335295 4.669355
head 6.144600 -0.406819 2.298845
rclavicle -0.000000 -0.000000
rhumerus -25.694700 3.941865 -42.850101
rradius 18.426950
rwrist -9.459800
rhand -15.061300 -11.963000
rfingers 3.562510
rthumb -1.717915 -26.939051
lclavicle -0.000000 -0.000000
lhumerus -6.626300 -11.790150 42.882648
lradius 17.597651
lwrist 4.019105
lhand -8.600600 -13.208800
lfingers 3.562510
lthumb 4.520605 1.684315
rfemur -21.514450 6.511050 4.081030
rtibia 13.544750
rfoot -14.065850 -2.777560
rtoes 1.982745
lfemur 7.161950 1.077930 -14.264150
ltibia -0.000000
lfoot -7.859950 2.383410
ltoes 0.368082
492
root 10.790200 17.154499 32.652000 4.936680 4.913020 4.856440
lowerback -2.813055 -2.557400 -2.537595
upperback -0.216681 -3.266350 0.606110
thorax 1.701605 -1.667995 1.746100
lowerneck -10.940250 -1.107015 -4.599810
upperneck 12.592950 -1.445615 5.064100
head 6.116400 -0.426847 2.472650
rclavicle -0.000000 0.000000
rhumerus -25.542500 3.805870 -42.826599
rradius 18.260300
rwrist -9.356000
rhand -14.740150 -11.931600
rfingers 3.562510
rthumb -1.407775 -26.912201
lclavicle -0.000000 0.000000
lhumerus -6.657050 -12.073800 42.883350
lradius 17.649050
lwrist 3.747130
lhand -8.763900 -13.210450
lfingers 3.562510
lthumb 4.363040 1.689375
rfemur -21.491301 6.938150 3.447695
rtibia 13.546250
rfoot -14.822650 -3.460030
rtoes 2.643315
lfemur 7.557100 0.782020 -14.483550
ltibia -0.000000
lfoot -7.954650 2.258285
ltoes 0.796180
493
root 10.769200 17.125200 32.807201 4.764720 4.946580 5.376010
lowerback -2.934080 -2.613540 -2.868960
upperback -0.005169 -3.306205 0.526640
thorax 2.022555 -1.703825 1.818240
lowerneck -11.273200 -1.186845 -4.940045
upperneck 12.687400 -1.566350 5.573850
head 6.251600 -0.441301 2.724600
rclavicle 0.000000 0.000000
rhumerus -25.293100 3.786345 -42.835548
rradius 18.012300
rwrist -9.354500
rhand -14.492750 -11.591400
rfingers 3.562510
rthumb -1.168850 -26.574850
lclavicle 0.000000 0.000000
lhumerus -6.646650 -12.167950 42.883949
lradius 17.616350
lwrist 3.220445
lhand -7.307200 -13.139950
lfingers 3.562510
lthumb 5.768300 1.691275
rfemur -21.449450 7.022750 3.206580
rtibia 13.599200
rfoot -14.752600 -4.256835
rtoes 0.525245
lfemur 7.953400 0.750100 -14.685200
ltibia 0.000000
lfoot -8.019850 2.266520
ltoes 1.375600
494
root 10.748100 17.095900 32.955799 4.653240 4.797080 5.517460
lowerback -3.065820 -2.615105 -3.022365
upperback 0.203332 -3.285210 0.524310
thorax 2.330235 -1.708350 1.878770
lowerneck -11.347100 -1.268630 -4.910595
upperneck 12.402700 -1.636185 5.475000
head 6.161050 -0.478565 2.654360
rclavicle 0.000000 0.000000
rhumerus -24.966249 3.661155 -42.721500
rradius 17.729750
rwrist -9.280350
rhand -14.548300 -11.377600
rfingers 3.562510
rthumb -1.222525 -26.360451
lclavicle 0.000000 0.000000
lhumerus -6.386550 -11.689700 42.823849
lradius 17.894100
lwrist 4.058500
lhand -7.868800 -13.104550
lfingers 3.562510
lthumb 5.226600 1.755490
rfemur -21.385500 6.802450 3.403970
rtibia 13.613200
rfoot -14.589450 -4.335745
rtoes -0.338798
lfemur 8.282100 0.811715 -14.682550
ltibia -0.000000
lfoot -8.044400 2.250155
ltoes 0.498874
495
root 10.730600 17.068501 33.110401 4.867290 4.665500 5.488680
lowerback -3.390045 -2.582545 -3.026125
upperback 0.385561 -3.217525 0.531615
thorax 2.698445 -1.686965 1.858465
lowerneck -11.535850 -1.254405 -4.860005
upperneck 12.222250 -1.602995 5.476500
head 6.122800 -0.452707 2.645360
rclavicle -0.000000 0.000000
rhumerus -24.604450 3.317815 -42.512299
rradius 17.433750
rwrist -9.061150
rhand -14.821600 -11.014850
rfingers 3.562510
rthumb -1.486445 -25.994350
lclavicle -0.000000 0.000000
lhumerus -6.345850 -12.336550 42.938148
lradius 17.711849
lwrist 3.222770
lhand -7.738050 -13.240650
lfingers 3.562510
lthumb 5.352750 1.612965
rfemur -21.391899 6.412650 3.706205
rtibia 13.482100
rfoot -12.283250 -6.640550
rtoes -13.145400
lfemur 8.445650 0.843450 -14.600850
ltibia 0.000000
lfoot -8.037900 2.268320
ltoes -2.727235
496
root 10.715700 17.051300 33.271301 5.180130 4.616550 5.526850
lowerback -3.766160 -2.552955 -3.029565
upperback 0.529170 -3.149840 0.514305
thorax 3.053965 -1.663380 1.811820
lowerneck -11.920100 -1.227100 -4.742030
upperneck 12.271100 -1.597105 5.542050
head 6.217300 -0.420878 2.660080
rclavicle 0.000000 0.000000
rhumerus -24.294149 3.009690 -42.361752
rradius 17.093500
rwrist -8.855350
rhand -14.941750 -10.610200
rfingers 3.562510
rthumb -1.602460 -25.588051
lclavicle 0.000000 0.000000
lhumerus -6.110400 -12.371450 42.876999
lradius 18.005301
lwrist 4.469100
lhand -4.945690 -12.782300
lfingers 3.562510
lthumb 8.044100 1.893765
rfemur -21.389151 6.010650 3.939215
rtibia 13.352150
rfoot -12.283250 -6.640550
rtoes -13.145400
lfemur 8.568400 0.822555 -14.541000
ltibia 0.000000
lfoot -8.059200 2.119535
ltoes -3.338760
497
root 10.695300 17.042801 33.432098 5.279910 4.700340 5.502350
lowerback -3.942645 -2.594155 -3.055690
upperback 0.637905 -3.188765 0.510295
thorax 3.277170 -1.690060 1.794765
lowerneck -11.838850 -1.305125 -4.699290
upperneck 11.942000 -1.690780 5.487900
head 6.082550 -0.466105 2.597500
rclavicle 0.000000 0.000000
rhumerus -24.114700 2.897390 -42.309250
rradius 16.878851
rwrist -8.749300
rhand -14.877950 -10.363300
rfingers 3.562510
rthumb -1.540870 -25.342051
lclavicle 0.000000 0.000000
lhumerus -6.290400 -13.143750 43.006950
lradius 17.737049
lwrist 3.741325
lhand -6.925200 -12.966500
lfingers 3.562510
lthumb 6.136700 1.843400
rfemur -21.305349 5.773100 4.166015
rtibia 13.333150
rfoot -12.283250 -6.640550
rtoes -13.145400
lfemur 8.792250 0.749860 -14.409750
ltibia 0.000000
lfoot -8.178250 1.851560
ltoes -1.066825
498
root 10.676100 17.003700 33.598099 5.381360 4.672840 5.527990
lowerback -3.991465 -2.672670 -3.137815
upperback 0.642635 -3.284675 0.550725
thorax 3.336235 -1.742355 1.861935
lowerneck -11.940500 -1.227255 -4.567770
upperneck 11.940700 -1.575855 5.336150
head 6.081750 -0.419668 2.535505
rclavicle 0.000000 -0.000000
rhumerus -24.135250 2.917160 -42.212650
rradius 16.781750
rwrist -8.628500
rhand -14.854400 -10.107650
rfingers 3.562510
rthumb -1.518135 -25.086750
lclavicle 0.000000 -0.000000
lhumerus -6.416950 -12.580700 43.072201
lradius 18.003799
lwrist 5.655300
lhand -6.372400 -13.133100
lfingers 3.562510
lthumb 6.669600 1.643425
rfemur -21.252850 5.459700 4.429555
rtibia 13.339650
rfoot -12.283250 -6.640550
rtoes -13.145400
lfemur 9.056900 0.739510 -14.370250
ltibia 0.000000
lfoot -8.344900 1.878605
ltoes -0.125861
